<?xml version="1.0" encoding="UTF-8" standalone="no"?>
<!DOCTYPE svg PUBLIC "-//W3C//DTD SVG 1.1//EN" "http://www.w3.org/Graphics/SVG/1.1/DTD/svg11.dtd">
<svg width="100%" height="100%" viewBox="0 0 845 610" version="1.1" xmlns="http://www.w3.org/2000/svg" xmlns:xlink="http://www.w3.org/1999/xlink" xml:space="preserve" xmlns:serif="http://www.serif.com/" style="fill-rule:evenodd;clip-rule:evenodd;">
    <g transform="matrix(1,0,0,1,-180.128,-469.677)">
        <g id="pgb-ram.svg" transform="matrix(8.53409e-15,-139.372,139.372,8.53409e-15,377.442,765.19)">
            <g transform="matrix(1,0,0,1,-2.12031,-1.41574)">
                <clipPath id="_clip1">
                    <rect x="0" y="0" width="4.241" height="2.831"/>
                </clipPath>
                <g clip-path="url(#_clip1)">
                    <g id="Diagram">
                        <g id="_46320264">
                            <path id="_89705936" d="M0.331,0.44C0.331,0.44 3.909,0.44 3.909,0.44C4.088,0.44 4.234,0.586 4.234,0.765L4.234,2.066C4.234,2.245 4.088,2.392 3.909,2.392L0.331,2.391C0.152,2.391 0.006,2.245 0.006,2.066L0.006,0.765C0.006,0.586 0.152,0.44 0.331,0.44Z" style="fill:rgb(77,73,72);stroke:rgb(77,73,72);stroke-width:0.01px;"/>
                            <path id="_89838728" d="M0.657,0.44L0.657,0.115" style="fill:none;stroke:rgb(131,130,129);stroke-width:0.23px;stroke-linecap:round;"/>
                            <path id="_90529672" d="M0.982,0.44L0.982,0.115" style="fill:none;stroke:rgb(131,130,129);stroke-width:0.23px;stroke-linecap:round;"/>
                            <path id="_88873184" d="M1.632,0.44L1.632,0.115" style="fill:none;stroke:rgb(131,130,129);stroke-width:0.23px;stroke-linecap:round;"/>
                            <path id="_89047400" d="M1.307,0.44L1.307,0.115" style="fill:none;stroke:rgb(131,130,129);stroke-width:0.23px;stroke-linecap:round;"/>
                            <path id="_48795480" d="M1.958,0.44L1.958,0.115" style="fill:none;stroke:rgb(131,130,129);stroke-width:0.23px;stroke-linecap:round;"/>
                            <path id="_87697416" d="M2.283,0.44L2.283,0.115" style="fill:none;stroke:rgb(131,130,129);stroke-width:0.23px;stroke-linecap:round;"/>
                            <path id="_87460568" d="M0.332,0.44L0.332,0.115" style="fill:none;stroke:rgb(131,130,129);stroke-width:0.23px;stroke-linecap:round;"/>
                            <path id="_88111800" d="M2.611,0.44L2.611,0.115" style="fill:none;stroke:rgb(131,130,129);stroke-width:0.23px;stroke-linecap:round;"/>
                            <path id="_89779384" d="M2.937,0.44L2.937,0.115" style="fill:none;stroke:rgb(131,130,129);stroke-width:0.23px;stroke-linecap:round;"/>
                            <path id="_91195720" d="M3.259,0.44L3.259,0.115" style="fill:none;stroke:rgb(131,130,129);stroke-width:0.23px;stroke-linecap:round;"/>
                            <path id="_89709768" d="M3.584,0.44L3.584,0.115" style="fill:none;stroke:rgb(131,130,129);stroke-width:0.23px;stroke-linecap:round;"/>
                            <path id="_48343384" d="M3.909,0.44L3.909,0.115" style="fill:none;stroke:rgb(131,130,129);stroke-width:0.23px;stroke-linecap:round;"/>
                            <path id="_88726520" d="M0.656,2.717L0.656,2.392" style="fill:none;stroke:rgb(131,130,129);stroke-width:0.23px;stroke-linecap:round;"/>
                            <path id="_89863896" d="M0.982,2.717L0.982,2.392" style="fill:none;stroke:rgb(131,130,129);stroke-width:0.23px;stroke-linecap:round;"/>
                            <path id="_89052328" d="M1.632,2.717L1.632,2.392" style="fill:none;stroke:rgb(131,130,129);stroke-width:0.23px;stroke-linecap:round;"/>
                            <path id="_90525016" d="M1.307,2.717L1.307,2.392" style="fill:none;stroke:rgb(131,130,129);stroke-width:0.23px;stroke-linecap:round;"/>
                            <path id="_88786464" d="M1.958,2.717L1.958,2.392" style="fill:none;stroke:rgb(131,130,129);stroke-width:0.23px;stroke-linecap:round;"/>
                            <path id="_48928224" d="M2.283,2.717L2.283,2.392" style="fill:none;stroke:rgb(131,130,129);stroke-width:0.23px;stroke-linecap:round;"/>
                            <path id="_90405880" d="M0.331,2.717L0.331,2.392" style="fill:none;stroke:rgb(131,130,129);stroke-width:0.23px;stroke-linecap:round;"/>
                            <path id="_88963376" d="M2.611,2.717L2.611,2.392" style="fill:none;stroke:rgb(131,130,129);stroke-width:0.23px;stroke-linecap:round;"/>
                            <path id="_90071336" d="M2.937,2.717L2.937,2.392" style="fill:none;stroke:rgb(131,130,129);stroke-width:0.23px;stroke-linecap:round;"/>
                            <path id="_87188792" d="M3.259,2.717L3.259,2.392" style="fill:none;stroke:rgb(131,130,129);stroke-width:0.23px;stroke-linecap:round;"/>
                            <path id="_89604440" d="M3.584,2.717L3.584,2.392" style="fill:none;stroke:rgb(131,130,129);stroke-width:0.23px;stroke-linecap:round;"/>
                            <path id="_89011904" d="M3.909,2.717L3.909,2.392" style="fill:none;stroke:rgb(131,130,129);stroke-width:0.23px;stroke-linecap:round;"/>
                        </g>
                    </g>
                </g>
            </g>
        </g>
        <g id="Grid">
            <g>
                <g transform="matrix(1,0,0,0.875763,13.4663,67.9272)">
                    <path d="M272.599,495.986L272.599,1019.49" style="fill:white;"/>
                    <path d="M269.484,492.429L275.715,492.429L275.715,503.158L269.484,503.158L269.484,492.429ZM269.484,510.499L275.715,510.499L275.715,524.842L269.484,524.842L269.484,510.499ZM269.484,532.184L275.715,532.184L275.715,546.527L269.484,546.527L269.484,532.184ZM269.484,553.869L275.715,553.869L275.715,568.212L269.484,568.212L269.484,553.869ZM269.484,575.554L275.715,575.554L275.715,589.896L269.484,589.896L269.484,575.554ZM269.484,597.238L275.715,597.238L275.715,611.581L269.484,611.581L269.484,597.238ZM269.484,618.923L275.715,618.923L275.715,633.265L269.484,633.265L269.484,618.923ZM269.484,640.607L275.715,640.607L275.715,654.95L269.484,654.95L269.484,640.607ZM269.484,662.292L275.715,662.292L275.715,676.635L269.484,676.635L269.484,662.292ZM269.484,683.976L275.715,683.976L275.715,698.319L269.484,698.319L269.484,683.976ZM269.484,705.661L275.715,705.661L275.715,720.004L269.484,720.004L269.484,705.661ZM269.484,727.346L275.715,727.346L275.715,741.728L269.484,741.728L269.484,727.346ZM269.484,749.227L275.715,749.227L275.715,763.648L269.484,763.648L269.484,749.227ZM269.484,771.148L275.715,771.148L275.715,785.569L269.484,785.569L269.484,771.148ZM269.484,793.069L275.715,793.069L275.715,807.491L269.484,807.491L269.484,793.069ZM269.484,814.989L275.715,814.989L275.715,829.411L269.484,829.411L269.484,814.989ZM269.484,836.911L275.715,836.911L275.715,851.332L269.484,851.332L269.484,836.911ZM269.484,858.831L275.715,858.831L275.715,873.253L269.484,873.253L269.484,858.831ZM269.484,880.752L275.715,880.752L275.715,895.173L269.484,895.173L269.484,880.752ZM269.484,902.673L275.715,902.673L275.715,917.094L269.484,917.094L269.484,902.673ZM269.484,924.594L275.715,924.594L275.715,939.015L269.484,939.015L269.484,924.594ZM269.484,946.515L275.715,946.515L275.715,960.936L269.484,960.936L269.484,946.515ZM269.484,968.435L275.715,968.435L275.715,982.857L269.484,982.857L269.484,968.435ZM269.484,990.356L275.715,990.356L275.715,1004.78L269.484,1004.78L269.484,990.356ZM269.484,1012.28L275.715,1012.28L275.715,1023.05L269.484,1023.05L269.484,1012.28Z" style="fill:white;"/>
                </g>
                <g transform="matrix(1,0,0,0.875763,73.9786,67.9272)">
                    <path d="M272.599,495.986L272.599,1019.49" style="fill:white;"/>
                    <path d="M269.484,492.429L275.715,492.429L275.715,503.158L269.484,503.158L269.484,492.429ZM269.484,510.499L275.715,510.499L275.715,524.842L269.484,524.842L269.484,510.499ZM269.484,532.184L275.715,532.184L275.715,546.527L269.484,546.527L269.484,532.184ZM269.484,553.869L275.715,553.869L275.715,568.212L269.484,568.212L269.484,553.869ZM269.484,575.554L275.715,575.554L275.715,589.896L269.484,589.896L269.484,575.554ZM269.484,597.238L275.715,597.238L275.715,611.581L269.484,611.581L269.484,597.238ZM269.484,618.923L275.715,618.923L275.715,633.265L269.484,633.265L269.484,618.923ZM269.484,640.607L275.715,640.607L275.715,654.95L269.484,654.95L269.484,640.607ZM269.484,662.292L275.715,662.292L275.715,676.635L269.484,676.635L269.484,662.292ZM269.484,683.976L275.715,683.976L275.715,698.319L269.484,698.319L269.484,683.976ZM269.484,705.661L275.715,705.661L275.715,720.004L269.484,720.004L269.484,705.661ZM269.484,727.346L275.715,727.346L275.715,741.728L269.484,741.728L269.484,727.346ZM269.484,749.227L275.715,749.227L275.715,763.648L269.484,763.648L269.484,749.227ZM269.484,771.148L275.715,771.148L275.715,785.569L269.484,785.569L269.484,771.148ZM269.484,793.069L275.715,793.069L275.715,807.491L269.484,807.491L269.484,793.069ZM269.484,814.989L275.715,814.989L275.715,829.411L269.484,829.411L269.484,814.989ZM269.484,836.911L275.715,836.911L275.715,851.332L269.484,851.332L269.484,836.911ZM269.484,858.831L275.715,858.831L275.715,873.253L269.484,873.253L269.484,858.831ZM269.484,880.752L275.715,880.752L275.715,895.173L269.484,895.173L269.484,880.752ZM269.484,902.673L275.715,902.673L275.715,917.094L269.484,917.094L269.484,902.673ZM269.484,924.594L275.715,924.594L275.715,939.015L269.484,939.015L269.484,924.594ZM269.484,946.515L275.715,946.515L275.715,960.936L269.484,960.936L269.484,946.515ZM269.484,968.435L275.715,968.435L275.715,982.857L269.484,982.857L269.484,968.435ZM269.484,990.356L275.715,990.356L275.715,1004.78L269.484,1004.78L269.484,990.356ZM269.484,1012.28L275.715,1012.28L275.715,1023.05L269.484,1023.05L269.484,1012.28Z" style="fill:white;"/>
                </g>
                <g transform="matrix(1,0,0,0.875763,134.491,67.9272)">
                    <path d="M272.599,495.986L272.599,1019.49" style="fill:white;"/>
                    <path d="M269.484,492.429L275.715,492.429L275.715,503.158L269.484,503.158L269.484,492.429ZM269.484,510.499L275.715,510.499L275.715,524.842L269.484,524.842L269.484,510.499ZM269.484,532.184L275.715,532.184L275.715,546.527L269.484,546.527L269.484,532.184ZM269.484,553.869L275.715,553.869L275.715,568.212L269.484,568.212L269.484,553.869ZM269.484,575.554L275.715,575.554L275.715,589.896L269.484,589.896L269.484,575.554ZM269.484,597.238L275.715,597.238L275.715,611.581L269.484,611.581L269.484,597.238ZM269.484,618.923L275.715,618.923L275.715,633.265L269.484,633.265L269.484,618.923ZM269.484,640.607L275.715,640.607L275.715,654.95L269.484,654.95L269.484,640.607ZM269.484,662.292L275.715,662.292L275.715,676.635L269.484,676.635L269.484,662.292ZM269.484,683.976L275.715,683.976L275.715,698.319L269.484,698.319L269.484,683.976ZM269.484,705.661L275.715,705.661L275.715,720.004L269.484,720.004L269.484,705.661ZM269.484,727.346L275.715,727.346L275.715,741.728L269.484,741.728L269.484,727.346ZM269.484,749.227L275.715,749.227L275.715,763.648L269.484,763.648L269.484,749.227ZM269.484,771.148L275.715,771.148L275.715,785.569L269.484,785.569L269.484,771.148ZM269.484,793.069L275.715,793.069L275.715,807.491L269.484,807.491L269.484,793.069ZM269.484,814.989L275.715,814.989L275.715,829.411L269.484,829.411L269.484,814.989ZM269.484,836.911L275.715,836.911L275.715,851.332L269.484,851.332L269.484,836.911ZM269.484,858.831L275.715,858.831L275.715,873.253L269.484,873.253L269.484,858.831ZM269.484,880.752L275.715,880.752L275.715,895.173L269.484,895.173L269.484,880.752ZM269.484,902.673L275.715,902.673L275.715,917.094L269.484,917.094L269.484,902.673ZM269.484,924.594L275.715,924.594L275.715,939.015L269.484,939.015L269.484,924.594ZM269.484,946.515L275.715,946.515L275.715,960.936L269.484,960.936L269.484,946.515ZM269.484,968.435L275.715,968.435L275.715,982.857L269.484,982.857L269.484,968.435ZM269.484,990.356L275.715,990.356L275.715,1004.78L269.484,1004.78L269.484,990.356ZM269.484,1012.28L275.715,1012.28L275.715,1023.05L269.484,1023.05L269.484,1012.28Z" style="fill:white;"/>
                </g>
                <g transform="matrix(6.12323e-17,-1,0.346774,2.12338e-17,114.07,774.893)">
                    <path d="M272.599,495.986L272.599,1019.49" style="fill:white;"/>
                    <path d="M269.484,487.002L275.715,487.002L275.715,514.909L269.484,514.909L269.484,487.002ZM269.484,536.696L275.715,536.696L275.715,574.542L269.484,574.542L269.484,536.696ZM269.484,596.329L275.715,596.329L275.715,634.174L269.484,634.174L269.484,596.329ZM269.484,655.962L275.715,655.962L275.715,693.807L269.484,693.807L269.484,655.962ZM269.484,715.594L275.715,715.594L275.715,753L269.484,753L269.484,715.594ZM269.484,773.028L275.715,773.028L275.715,809.994L269.484,809.994L269.484,773.028ZM269.484,830.022L275.715,830.022L275.715,866.988L269.484,866.988L269.484,830.022ZM269.484,887.017L275.715,887.017L275.715,923.983L269.484,923.983L269.484,887.017ZM269.484,944.011L275.715,944.011L275.715,980.977L269.484,980.977L269.484,944.011ZM269.484,1001L275.715,1001L275.715,1028.47L269.484,1028.47L269.484,1001Z" style="fill:white;"/>
                </g>
                <g transform="matrix(6.12323e-17,-1,0.346774,2.12338e-17,114.07,840.388)">
                    <path d="M272.599,495.986L272.599,1019.49" style="fill:white;"/>
                    <path d="M269.484,487.002L275.715,487.002L275.715,514.909L269.484,514.909L269.484,487.002ZM269.484,536.696L275.715,536.696L275.715,574.542L269.484,574.542L269.484,536.696ZM269.484,596.329L275.715,596.329L275.715,634.174L269.484,634.174L269.484,596.329ZM269.484,655.962L275.715,655.962L275.715,693.807L269.484,693.807L269.484,655.962ZM269.484,715.594L275.715,715.594L275.715,753L269.484,753L269.484,715.594ZM269.484,773.028L275.715,773.028L275.715,809.994L269.484,809.994L269.484,773.028ZM269.484,830.022L275.715,830.022L275.715,866.988L269.484,866.988L269.484,830.022ZM269.484,887.017L275.715,887.017L275.715,923.983L269.484,923.983L269.484,887.017ZM269.484,944.011L275.715,944.011L275.715,980.977L269.484,980.977L269.484,944.011ZM269.484,1001L275.715,1001L275.715,1028.47L269.484,1028.47L269.484,1001Z" style="fill:white;"/>
                </g>
                <g transform="matrix(6.12323e-17,-1,0.346774,2.12338e-17,114.07,905.882)">
                    <path d="M272.599,495.986L272.599,1019.49" style="fill:white;"/>
                    <path d="M269.484,487.002L275.715,487.002L275.715,514.909L269.484,514.909L269.484,487.002ZM269.484,536.696L275.715,536.696L275.715,574.542L269.484,574.542L269.484,536.696ZM269.484,596.329L275.715,596.329L275.715,634.174L269.484,634.174L269.484,596.329ZM269.484,655.962L275.715,655.962L275.715,693.807L269.484,693.807L269.484,655.962ZM269.484,715.594L275.715,715.594L275.715,753L269.484,753L269.484,715.594ZM269.484,773.028L275.715,773.028L275.715,809.994L269.484,809.994L269.484,773.028ZM269.484,830.022L275.715,830.022L275.715,866.988L269.484,866.988L269.484,830.022ZM269.484,887.017L275.715,887.017L275.715,923.983L269.484,923.983L269.484,887.017ZM269.484,944.011L275.715,944.011L275.715,980.977L269.484,980.977L269.484,944.011ZM269.484,1001L275.715,1001L275.715,1028.47L269.484,1028.47L269.484,1001Z" style="fill:white;"/>
                </g>
                <g transform="matrix(6.12323e-17,-1,0.346774,2.12338e-17,114.07,971.377)">
                    <path d="M272.599,495.986L272.599,1019.49" style="fill:white;"/>
                    <path d="M269.484,487.002L275.715,487.002L275.715,514.909L269.484,514.909L269.484,487.002ZM269.484,536.696L275.715,536.696L275.715,574.542L269.484,574.542L269.484,536.696ZM269.484,596.329L275.715,596.329L275.715,634.174L269.484,634.174L269.484,596.329ZM269.484,655.962L275.715,655.962L275.715,693.807L269.484,693.807L269.484,655.962ZM269.484,715.594L275.715,715.594L275.715,753L269.484,753L269.484,715.594ZM269.484,773.028L275.715,773.028L275.715,809.994L269.484,809.994L269.484,773.028ZM269.484,830.022L275.715,830.022L275.715,866.988L269.484,866.988L269.484,830.022ZM269.484,887.017L275.715,887.017L275.715,923.983L269.484,923.983L269.484,887.017ZM269.484,944.011L275.715,944.011L275.715,980.977L269.484,980.977L269.484,944.011ZM269.484,1001L275.715,1001L275.715,1028.47L269.484,1028.47L269.484,1001Z" style="fill:white;"/>
                </g>
                <g transform="matrix(6.12323e-17,-1,0.346774,2.12338e-17,114.07,1036.87)">
                    <path d="M272.599,495.986L272.599,1019.49" style="fill:white;"/>
                    <path d="M269.484,487.002L275.715,487.002L275.715,514.909L269.484,514.909L269.484,487.002ZM269.484,536.696L275.715,536.696L275.715,574.542L269.484,574.542L269.484,536.696ZM269.484,596.329L275.715,596.329L275.715,634.174L269.484,634.174L269.484,596.329ZM269.484,655.962L275.715,655.962L275.715,693.807L269.484,693.807L269.484,655.962ZM269.484,715.594L275.715,715.594L275.715,753L269.484,753L269.484,715.594ZM269.484,773.028L275.715,773.028L275.715,809.994L269.484,809.994L269.484,773.028ZM269.484,830.022L275.715,830.022L275.715,866.988L269.484,866.988L269.484,830.022ZM269.484,887.017L275.715,887.017L275.715,923.983L269.484,923.983L269.484,887.017ZM269.484,944.011L275.715,944.011L275.715,980.977L269.484,980.977L269.484,944.011ZM269.484,1001L275.715,1001L275.715,1028.47L269.484,1028.47L269.484,1001Z" style="fill:white;"/>
                </g>
                <g transform="matrix(6.12323e-17,-1,0.346774,2.12338e-17,114.07,1102.37)">
                    <path d="M272.599,495.986L272.599,1019.49" style="fill:white;"/>
                    <path d="M269.484,487.002L275.715,487.002L275.715,514.909L269.484,514.909L269.484,487.002ZM269.484,536.696L275.715,536.696L275.715,574.542L269.484,574.542L269.484,536.696ZM269.484,596.329L275.715,596.329L275.715,634.174L269.484,634.174L269.484,596.329ZM269.484,655.962L275.715,655.962L275.715,693.807L269.484,693.807L269.484,655.962ZM269.484,715.594L275.715,715.594L275.715,753L269.484,753L269.484,715.594ZM269.484,773.028L275.715,773.028L275.715,809.994L269.484,809.994L269.484,773.028ZM269.484,830.022L275.715,830.022L275.715,866.988L269.484,866.988L269.484,830.022ZM269.484,887.017L275.715,887.017L275.715,923.983L269.484,923.983L269.484,887.017ZM269.484,944.011L275.715,944.011L275.715,980.977L269.484,980.977L269.484,944.011ZM269.484,1001L275.715,1001L275.715,1028.47L269.484,1028.47L269.484,1001Z" style="fill:white;"/>
                </g>
                <g transform="matrix(6.12323e-17,-1,0.346774,2.12338e-17,114.07,1167.86)">
                    <path d="M272.599,495.986L272.599,1019.49" style="fill:white;"/>
                    <path d="M269.484,487.002L275.715,487.002L275.715,514.909L269.484,514.909L269.484,487.002ZM269.484,536.696L275.715,536.696L275.715,574.542L269.484,574.542L269.484,536.696ZM269.484,596.329L275.715,596.329L275.715,634.174L269.484,634.174L269.484,596.329ZM269.484,655.962L275.715,655.962L275.715,693.807L269.484,693.807L269.484,655.962ZM269.484,715.594L275.715,715.594L275.715,753L269.484,753L269.484,715.594ZM269.484,773.028L275.715,773.028L275.715,809.994L269.484,809.994L269.484,773.028ZM269.484,830.022L275.715,830.022L275.715,866.988L269.484,866.988L269.484,830.022ZM269.484,887.017L275.715,887.017L275.715,923.983L269.484,923.983L269.484,887.017ZM269.484,944.011L275.715,944.011L275.715,980.977L269.484,980.977L269.484,944.011ZM269.484,1001L275.715,1001L275.715,1028.47L269.484,1028.47L269.484,1001Z" style="fill:white;"/>
                </g>
                <g transform="matrix(6.12323e-17,-1,0.346774,2.12338e-17,114.07,1233.36)">
                    <path d="M272.599,495.986L272.599,1019.49" style="fill:white;"/>
                    <path d="M269.484,487.002L275.715,487.002L275.715,514.909L269.484,514.909L269.484,487.002ZM269.484,536.696L275.715,536.696L275.715,574.542L269.484,574.542L269.484,536.696ZM269.484,596.329L275.715,596.329L275.715,634.174L269.484,634.174L269.484,596.329ZM269.484,655.962L275.715,655.962L275.715,693.807L269.484,693.807L269.484,655.962ZM269.484,715.594L275.715,715.594L275.715,753L269.484,753L269.484,715.594ZM269.484,773.028L275.715,773.028L275.715,809.994L269.484,809.994L269.484,773.028ZM269.484,830.022L275.715,830.022L275.715,866.988L269.484,866.988L269.484,830.022ZM269.484,887.017L275.715,887.017L275.715,923.983L269.484,923.983L269.484,887.017ZM269.484,944.011L275.715,944.011L275.715,980.977L269.484,980.977L269.484,944.011ZM269.484,1001L275.715,1001L275.715,1028.47L269.484,1028.47L269.484,1001Z" style="fill:white;"/>
                </g>
                <g transform="matrix(1,0,0,0.875763,195.003,67.9272)">
                    <path d="M272.599,495.986L272.599,1019.49" style="fill:white;"/>
                    <path d="M269.484,492.429L275.715,492.429L275.715,503.158L269.484,503.158L269.484,492.429ZM269.484,510.499L275.715,510.499L275.715,524.842L269.484,524.842L269.484,510.499ZM269.484,532.184L275.715,532.184L275.715,546.527L269.484,546.527L269.484,532.184ZM269.484,553.869L275.715,553.869L275.715,568.212L269.484,568.212L269.484,553.869ZM269.484,575.554L275.715,575.554L275.715,589.896L269.484,589.896L269.484,575.554ZM269.484,597.238L275.715,597.238L275.715,611.581L269.484,611.581L269.484,597.238ZM269.484,618.923L275.715,618.923L275.715,633.265L269.484,633.265L269.484,618.923ZM269.484,640.607L275.715,640.607L275.715,654.95L269.484,654.95L269.484,640.607ZM269.484,662.292L275.715,662.292L275.715,676.635L269.484,676.635L269.484,662.292ZM269.484,683.976L275.715,683.976L275.715,698.319L269.484,698.319L269.484,683.976ZM269.484,705.661L275.715,705.661L275.715,720.004L269.484,720.004L269.484,705.661ZM269.484,727.346L275.715,727.346L275.715,741.728L269.484,741.728L269.484,727.346ZM269.484,749.227L275.715,749.227L275.715,763.648L269.484,763.648L269.484,749.227ZM269.484,771.148L275.715,771.148L275.715,785.569L269.484,785.569L269.484,771.148ZM269.484,793.069L275.715,793.069L275.715,807.491L269.484,807.491L269.484,793.069ZM269.484,814.989L275.715,814.989L275.715,829.411L269.484,829.411L269.484,814.989ZM269.484,836.911L275.715,836.911L275.715,851.332L269.484,851.332L269.484,836.911ZM269.484,858.831L275.715,858.831L275.715,873.253L269.484,873.253L269.484,858.831ZM269.484,880.752L275.715,880.752L275.715,895.173L269.484,895.173L269.484,880.752ZM269.484,902.673L275.715,902.673L275.715,917.094L269.484,917.094L269.484,902.673ZM269.484,924.594L275.715,924.594L275.715,939.015L269.484,939.015L269.484,924.594ZM269.484,946.515L275.715,946.515L275.715,960.936L269.484,960.936L269.484,946.515ZM269.484,968.435L275.715,968.435L275.715,982.857L269.484,982.857L269.484,968.435ZM269.484,990.356L275.715,990.356L275.715,1004.78L269.484,1004.78L269.484,990.356ZM269.484,1012.28L275.715,1012.28L275.715,1023.05L269.484,1023.05L269.484,1012.28Z" style="fill:white;"/>
                </g>
            </g>
            <g transform="matrix(1,-8.62817e-31,8.62817e-31,1,-4.80839,10.1861)">
                <text x="324.316px" y="1011.01px" style="font-family:'CourierNewPS-BoldMT', 'Courier New';font-weight:700;font-size:63.045px;fill:white;stroke:black;stroke-width:1px;stroke-linejoin:round;stroke-miterlimit:2;">ROM</text>
            </g>
        </g>
        <g id="Values">
            <g>
                <g>
                    <g transform="matrix(0.689513,0,0,0.689513,102.705,164.25)">
                        <g transform="matrix(91.4337,0,0,91.4337,336.336,567.788)">
                        </g>
                        <text x="286.066px" y="567.788px" style="font-family:'Consolas';font-size:91.434px;fill:rgb(31,159,25);stroke:black;stroke-width:1.45px;stroke-linejoin:round;stroke-miterlimit:2;">0</text>
                    </g>
                    <g transform="matrix(0.689513,0,0,0.689513,162.773,163.88)">
                        <g transform="matrix(91.4337,0,0,91.4337,336.336,567.788)">
                        </g>
                        <text x="286.066px" y="567.788px" style="font-family:'Consolas';font-size:91.434px;fill:rgb(31,159,25);stroke:black;stroke-width:1.45px;stroke-linejoin:round;stroke-miterlimit:2;">1</text>
                    </g>
                    <g transform="matrix(0.689513,0,0,0.689513,223.026,164.25)">
                        <g transform="matrix(91.4337,0,0,91.4337,336.336,567.788)">
                        </g>
                        <text x="286.066px" y="567.788px" style="font-family:'Consolas';font-size:91.434px;fill:rgb(31,159,25);stroke:black;stroke-width:1.45px;stroke-linejoin:round;stroke-miterlimit:2;">0</text>
                    </g>
                </g>
                <g transform="matrix(1,0,0,1,0,0.810431)">
                    <g transform="matrix(0.689513,0,0,0.689513,102.705,229.16)">
                        <g transform="matrix(91.4337,0,0,91.4337,336.336,567.788)">
                        </g>
                        <text x="286.066px" y="567.788px" style="font-family:'Consolas';font-size:91.434px;fill:rgb(31,159,25);stroke:black;stroke-width:1.45px;stroke-linejoin:round;stroke-miterlimit:2;">0</text>
                    </g>
                    <g transform="matrix(0.689513,0,0,0.689513,163.589,229.16)">
                        <g transform="matrix(91.4337,0,0,91.4337,336.336,567.788)">
                        </g>
                        <text x="286.066px" y="567.788px" style="font-family:'Consolas';font-size:91.434px;fill:rgb(31,159,25);stroke:black;stroke-width:1.45px;stroke-linejoin:round;stroke-miterlimit:2;">0</text>
                    </g>
                    <g transform="matrix(0.689513,0,0,0.689513,223.026,228.79)">
                        <g transform="matrix(91.4337,0,0,91.4337,336.336,567.788)">
                        </g>
                        <text x="286.066px" y="567.788px" style="font-family:'Consolas';font-size:91.434px;fill:rgb(31,159,25);stroke:black;stroke-width:1.45px;stroke-linejoin:round;stroke-miterlimit:2;">1</text>
                    </g>
                </g>
                <g transform="matrix(1,0,0,1,-0.838444,1.09314)">
                    <g transform="matrix(0.689513,0,0,0.689513,102.097,294.228)">
                        <g transform="matrix(91.4337,0,0,91.4337,336.336,567.788)">
                        </g>
                        <text x="286.066px" y="567.788px" style="font-family:'Consolas';font-size:91.434px;fill:rgb(31,159,25);stroke:black;stroke-width:1.45px;stroke-linejoin:round;stroke-miterlimit:2;">1</text>
                    </g>
                    <g transform="matrix(0.689513,0,0,0.689513,161.534,294.228)">
                        <g transform="matrix(91.4337,0,0,91.4337,336.336,567.788)">
                        </g>
                        <text x="286.066px" y="567.788px" style="font-family:'Consolas';font-size:91.434px;fill:rgb(31,159,25);stroke:black;stroke-width:1.45px;stroke-linejoin:round;stroke-miterlimit:2;">1</text>
                    </g>
                    <g transform="matrix(0.689513,0,0,0.689513,222.418,294.598)">
                        <g transform="matrix(91.4337,0,0,91.4337,336.336,567.788)">
                        </g>
                        <text x="286.066px" y="567.788px" style="font-family:'Consolas';font-size:91.434px;fill:rgb(31,159,25);stroke:black;stroke-width:1.45px;stroke-linejoin:round;stroke-miterlimit:2;">0</text>
                    </g>
                </g>
                <g transform="matrix(1,0,0,1,-1.44683,-0.294019)">
                    <g transform="matrix(0.689513,0,0,0.689513,102.705,427.056)">
                        <g transform="matrix(91.4337,0,0,91.4337,336.336,567.788)">
                        </g>
                        <text x="286.066px" y="567.788px" style="font-family:'Consolas';font-size:91.434px;fill:rgb(31,159,25);stroke:black;stroke-width:1.45px;stroke-linejoin:round;stroke-miterlimit:2;">1</text>
                    </g>
                    <g transform="matrix(0.689513,0,0,0.689513,162.865,427.056)">
                        <g transform="matrix(91.4337,0,0,91.4337,336.336,567.788)">
                        </g>
                        <text x="286.066px" y="567.788px" style="font-family:'Consolas';font-size:91.434px;fill:rgb(31,159,25);stroke:black;stroke-width:1.45px;stroke-linejoin:round;stroke-miterlimit:2;">1</text>
                    </g>
                    <g transform="matrix(0.689513,0,0,0.689513,223.026,427.056)">
                        <g transform="matrix(91.4337,0,0,91.4337,336.336,567.788)">
                        </g>
                        <text x="286.066px" y="567.788px" style="font-family:'Consolas';font-size:91.434px;fill:rgb(31,159,25);stroke:black;stroke-width:1.45px;stroke-linejoin:round;stroke-miterlimit:2;">1</text>
                    </g>
                </g>
                <g transform="matrix(1,0,0,1,0,0.490032)">
                    <g transform="matrix(0.689513,0,0,0.689513,102.705,491.438)">
                        <g transform="matrix(91.4337,0,0,91.4337,336.336,567.788)">
                        </g>
                        <text x="286.066px" y="567.788px" style="font-family:'Consolas';font-size:91.434px;fill:rgb(31,159,25);stroke:black;stroke-width:1.45px;stroke-linejoin:round;stroke-miterlimit:2;">0</text>
                    </g>
                    <g transform="matrix(0.689513,0,0,0.689513,162.773,491.069)">
                        <g transform="matrix(91.4337,0,0,91.4337,336.336,567.788)">
                        </g>
                        <text x="286.066px" y="567.788px" style="font-family:'Consolas';font-size:91.434px;fill:rgb(31,159,25);stroke:black;stroke-width:1.45px;stroke-linejoin:round;stroke-miterlimit:2;">1</text>
                    </g>
                    <g transform="matrix(0.689513,0,0,0.689513,223.026,491.438)">
                        <g transform="matrix(91.4337,0,0,91.4337,336.336,567.788)">
                        </g>
                        <text x="286.066px" y="567.788px" style="font-family:'Consolas';font-size:91.434px;fill:rgb(31,159,25);stroke:black;stroke-width:1.45px;stroke-linejoin:round;stroke-miterlimit:2;">0</text>
                    </g>
                </g>
                <g transform="matrix(1,0,0,1,-1.44683,0.245016)">
                    <g transform="matrix(0.689513,0,0,0.689513,102.705,557.034)">
                        <g transform="matrix(91.4337,0,0,91.4337,336.336,567.788)">
                        </g>
                        <text x="286.066px" y="567.788px" style="font-family:'Consolas';font-size:91.434px;fill:rgb(31,159,25);stroke:black;stroke-width:1.45px;stroke-linejoin:round;stroke-miterlimit:2;">1</text>
                    </g>
                    <g transform="matrix(0.689513,0,0,0.689513,162.234,557.404)">
                        <g transform="matrix(91.4337,0,0,91.4337,336.336,567.788)">
                        </g>
                        <text x="286.066px" y="567.788px" style="font-family:'Consolas';font-size:91.434px;fill:rgb(31,159,25);stroke:black;stroke-width:1.45px;stroke-linejoin:round;stroke-miterlimit:2;">0</text>
                    </g>
                    <g transform="matrix(0.689513,0,0,0.689513,223.026,557.404)">
                        <g transform="matrix(91.4337,0,0,91.4337,336.336,567.788)">
                        </g>
                        <text x="286.066px" y="567.788px" style="font-family:'Consolas';font-size:91.434px;fill:rgb(31,159,25);stroke:black;stroke-width:1.45px;stroke-linejoin:round;stroke-miterlimit:2;">0</text>
                    </g>
                </g>
                <g transform="matrix(1,0,0,1,-1.13687e-13,1.37585)">
                    <g transform="matrix(0.689513,0,0,0.689513,102.705,360.035)">
                        <g transform="matrix(91.4337,0,0,91.4337,336.336,567.788)">
                        </g>
                        <text x="286.066px" y="567.788px" style="font-family:'Consolas';font-size:91.434px;fill:rgb(31,159,25);stroke:black;stroke-width:1.45px;stroke-linejoin:round;stroke-miterlimit:2;">0</text>
                    </g>
                    <g transform="matrix(0.689513,0,0,0.689513,162.773,359.666)">
                        <g transform="matrix(91.4337,0,0,91.4337,336.336,567.788)">
                        </g>
                        <text x="286.066px" y="567.788px" style="font-family:'Consolas';font-size:91.434px;fill:rgb(31,159,25);stroke:black;stroke-width:1.45px;stroke-linejoin:round;stroke-miterlimit:2;">1</text>
                    </g>
                    <g transform="matrix(0.689513,0,0,0.689513,223.026,360.035)">
                        <g transform="matrix(91.4337,0,0,91.4337,336.336,567.788)">
                        </g>
                        <text x="286.066px" y="567.788px" style="font-family:'Consolas';font-size:91.434px;fill:rgb(31,159,25);stroke:black;stroke-width:1.45px;stroke-linejoin:round;stroke-miterlimit:2;">0</text>
                    </g>
                </g>
            </g>
        </g>
        <g id="Patch-RAM" serif:id="Patch RAM">
            <g id="_463202641" serif:id="_46320264" transform="matrix(110.59,0,0,110.59,579.817,866.105)">
                <g id="_897059361" serif:id="_89705936" transform="matrix(4.33823e-17,-0.708486,1.25064,7.65799e-17,0.0296775,1.86839)">
                    <path d="M0.331,0.44C0.331,0.44 3.909,0.44 3.909,0.44C4.088,0.44 4.234,0.586 4.234,0.765L4.234,2.066C4.234,2.245 4.088,2.392 3.909,2.392L0.331,2.391C0.152,2.391 0.006,2.245 0.006,2.066L0.006,0.765C0.006,0.586 0.152,0.44 0.331,0.44Z" style="fill:rgb(77,73,72);stroke:rgb(77,73,72);stroke-width:0.01px;"/>
                </g>
                <g id="_876974161" serif:id="_87697416" transform="matrix(7.73954e-17,-1.26396,1.25064,7.65799e-17,0.0296712,4.2205)">
                    <path d="M2.283,0.44L2.283,0.115" style="fill:none;stroke:rgb(131,130,129);stroke-width:0.23px;stroke-linecap:round;"/>
                </g>
                <g id="_881118001" serif:id="_88111800" transform="matrix(7.73954e-17,-1.26396,1.25064,7.65799e-17,0.0296712,4.2205)">
                    <path d="M2.611,0.44L2.611,0.115" style="fill:none;stroke:rgb(131,130,129);stroke-width:0.23px;stroke-linecap:round;"/>
                </g>
                <g id="_897793841" serif:id="_89779384" transform="matrix(7.73954e-17,-1.26396,1.25064,7.65799e-17,0.0296712,4.2205)">
                    <path d="M2.937,0.44L2.937,0.115" style="fill:none;stroke:rgb(131,130,129);stroke-width:0.23px;stroke-linecap:round;"/>
                </g>
                <g id="_911957201" serif:id="_91195720" transform="matrix(7.73954e-17,-1.26396,1.25064,7.65799e-17,0.0296712,4.2205)">
                    <path d="M3.259,0.44L3.259,0.115" style="fill:none;stroke:rgb(131,130,129);stroke-width:0.23px;stroke-linecap:round;"/>
                </g>
                <g id="_897097681" serif:id="_89709768" transform="matrix(7.73954e-17,-1.26396,1.25064,7.65799e-17,0.0296712,4.2205)">
                    <path d="M3.584,0.44L3.584,0.115" style="fill:none;stroke:rgb(131,130,129);stroke-width:0.23px;stroke-linecap:round;"/>
                </g>
                <g id="_483433841" serif:id="_48343384" transform="matrix(7.73954e-17,-1.26396,1.25064,7.65799e-17,0.0296712,4.2205)">
                    <path d="M3.909,0.44L3.909,0.115" style="fill:none;stroke:rgb(131,130,129);stroke-width:0.23px;stroke-linecap:round;"/>
                </g>
                <g id="_489282241" serif:id="_48928224" transform="matrix(7.73954e-17,-1.26396,1.25064,7.65799e-17,0.0296712,4.2205)">
                    <path d="M2.283,2.717L2.283,2.392" style="fill:none;stroke:rgb(131,130,129);stroke-width:0.23px;stroke-linecap:round;"/>
                </g>
                <g id="_889633761" serif:id="_88963376" transform="matrix(7.73954e-17,-1.26396,1.25064,7.65799e-17,0.0296712,4.2205)">
                    <path d="M2.611,2.717L2.611,2.392" style="fill:none;stroke:rgb(131,130,129);stroke-width:0.23px;stroke-linecap:round;"/>
                </g>
                <g id="_900713361" serif:id="_90071336" transform="matrix(7.73954e-17,-1.26396,1.25064,7.65799e-17,0.0296712,4.2205)">
                    <path d="M2.937,2.717L2.937,2.392" style="fill:none;stroke:rgb(131,130,129);stroke-width:0.23px;stroke-linecap:round;"/>
                </g>
                <g id="_871887921" serif:id="_87188792" transform="matrix(7.73954e-17,-1.26396,1.25064,7.65799e-17,0.0296712,4.2205)">
                    <path d="M3.259,2.717L3.259,2.392" style="fill:none;stroke:rgb(131,130,129);stroke-width:0.23px;stroke-linecap:round;"/>
                </g>
                <g id="_896044401" serif:id="_89604440" transform="matrix(7.73954e-17,-1.26396,1.25064,7.65799e-17,0.0296712,4.2205)">
                    <path d="M3.584,2.717L3.584,2.392" style="fill:none;stroke:rgb(131,130,129);stroke-width:0.23px;stroke-linecap:round;"/>
                </g>
                <g id="_890119041" serif:id="_89011904" transform="matrix(7.73954e-17,-1.26396,1.25064,7.65799e-17,0.0296712,4.2205)">
                    <path d="M3.909,2.717L3.909,2.392" style="fill:none;stroke:rgb(131,130,129);stroke-width:0.23px;stroke-linecap:round;"/>
                </g>
            </g>
            <g id="Grid1" serif:id="Grid" transform="matrix(1,0,0,1,401.255,24.6449)">
                <g transform="matrix(1,0,0,1,0.824568,-2.4737)">
                    <g transform="matrix(1,0,0,0.375763,13.4663,577.671)">
                        <path d="M272.599,495.986L272.599,1019.49" style="fill:white;"/>
                        <path d="M269.484,487.695L275.715,487.695L275.715,514.216L269.484,514.216L269.484,487.695ZM269.484,537.389L275.715,537.389L275.715,573.849L269.484,573.849L269.484,537.389ZM269.484,597.022L275.715,597.022L275.715,633.481L269.484,633.481L269.484,597.022ZM269.484,656.655L275.715,656.655L275.715,693.114L269.484,693.114L269.484,656.655ZM269.484,716.288L275.715,716.288L275.715,752.307L269.484,752.307L269.484,716.288ZM269.484,773.721L275.715,773.721L275.715,809.301L269.484,809.301L269.484,773.721ZM269.484,830.716L275.715,830.716L275.715,866.295L269.484,866.295L269.484,830.716ZM269.484,887.71L275.715,887.71L275.715,923.289L269.484,923.289L269.484,887.71ZM269.484,944.704L275.715,944.704L275.715,980.284L269.484,980.284L269.484,944.704ZM269.484,1001.7L275.715,1001.7L275.715,1027.78L269.484,1027.78L269.484,1001.7Z" style="fill:white;"/>
                    </g>
                    <g transform="matrix(1,0,0,0.375763,73.9786,577.671)">
                        <path d="M272.599,495.986L272.599,1019.49" style="fill:white;"/>
                        <path d="M269.484,487.695L275.715,487.695L275.715,514.216L269.484,514.216L269.484,487.695ZM269.484,537.389L275.715,537.389L275.715,573.849L269.484,573.849L269.484,537.389ZM269.484,597.022L275.715,597.022L275.715,633.481L269.484,633.481L269.484,597.022ZM269.484,656.655L275.715,656.655L275.715,693.114L269.484,693.114L269.484,656.655ZM269.484,716.288L275.715,716.288L275.715,752.307L269.484,752.307L269.484,716.288ZM269.484,773.721L275.715,773.721L275.715,809.301L269.484,809.301L269.484,773.721ZM269.484,830.716L275.715,830.716L275.715,866.295L269.484,866.295L269.484,830.716ZM269.484,887.71L275.715,887.71L275.715,923.289L269.484,923.289L269.484,887.71ZM269.484,944.704L275.715,944.704L275.715,980.284L269.484,980.284L269.484,944.704ZM269.484,1001.7L275.715,1001.7L275.715,1027.78L269.484,1027.78L269.484,1001.7Z" style="fill:white;"/>
                    </g>
                    <g transform="matrix(1,0,0,0.375763,134.491,577.671)">
                        <path d="M272.599,495.986L272.599,1019.49" style="fill:white;"/>
                        <path d="M269.484,487.695L275.715,487.695L275.715,514.216L269.484,514.216L269.484,487.695ZM269.484,537.389L275.715,537.389L275.715,573.849L269.484,573.849L269.484,537.389ZM269.484,597.022L275.715,597.022L275.715,633.481L269.484,633.481L269.484,597.022ZM269.484,656.655L275.715,656.655L275.715,693.114L269.484,693.114L269.484,656.655ZM269.484,716.288L275.715,716.288L275.715,752.307L269.484,752.307L269.484,716.288ZM269.484,773.721L275.715,773.721L275.715,809.301L269.484,809.301L269.484,773.721ZM269.484,830.716L275.715,830.716L275.715,866.295L269.484,866.295L269.484,830.716ZM269.484,887.71L275.715,887.71L275.715,923.289L269.484,923.289L269.484,887.71ZM269.484,944.704L275.715,944.704L275.715,980.284L269.484,980.284L269.484,944.704ZM269.484,1001.7L275.715,1001.7L275.715,1027.78L269.484,1027.78L269.484,1001.7Z" style="fill:white;"/>
                    </g>
                    <g transform="matrix(6.12323e-17,-1,0.346774,2.12338e-17,114.07,1036.87)">
                        <path d="M272.599,495.986L272.599,1019.49" style="fill:white;"/>
                        <path d="M269.484,487.002L275.715,487.002L275.715,514.909L269.484,514.909L269.484,487.002ZM269.484,536.696L275.715,536.696L275.715,574.542L269.484,574.542L269.484,536.696ZM269.484,596.329L275.715,596.329L275.715,634.174L269.484,634.174L269.484,596.329ZM269.484,655.962L275.715,655.962L275.715,693.807L269.484,693.807L269.484,655.962ZM269.484,715.594L275.715,715.594L275.715,753L269.484,753L269.484,715.594ZM269.484,773.028L275.715,773.028L275.715,809.994L269.484,809.994L269.484,773.028ZM269.484,830.022L275.715,830.022L275.715,866.988L269.484,866.988L269.484,830.022ZM269.484,887.017L275.715,887.017L275.715,923.983L269.484,923.983L269.484,887.017ZM269.484,944.011L275.715,944.011L275.715,980.977L269.484,980.977L269.484,944.011ZM269.484,1001L275.715,1001L275.715,1028.47L269.484,1028.47L269.484,1001Z" style="fill:white;"/>
                    </g>
                    <g transform="matrix(6.12323e-17,-1,0.346774,2.12338e-17,114.07,1102.37)">
                        <path d="M272.599,495.986L272.599,1019.49" style="fill:white;"/>
                        <path d="M269.484,487.002L275.715,487.002L275.715,514.909L269.484,514.909L269.484,487.002ZM269.484,536.696L275.715,536.696L275.715,574.542L269.484,574.542L269.484,536.696ZM269.484,596.329L275.715,596.329L275.715,634.174L269.484,634.174L269.484,596.329ZM269.484,655.962L275.715,655.962L275.715,693.807L269.484,693.807L269.484,655.962ZM269.484,715.594L275.715,715.594L275.715,753L269.484,753L269.484,715.594ZM269.484,773.028L275.715,773.028L275.715,809.994L269.484,809.994L269.484,773.028ZM269.484,830.022L275.715,830.022L275.715,866.988L269.484,866.988L269.484,830.022ZM269.484,887.017L275.715,887.017L275.715,923.983L269.484,923.983L269.484,887.017ZM269.484,944.011L275.715,944.011L275.715,980.977L269.484,980.977L269.484,944.011ZM269.484,1001L275.715,1001L275.715,1028.47L269.484,1028.47L269.484,1001Z" style="fill:white;"/>
                    </g>
                    <g transform="matrix(6.12323e-17,-1,0.346774,2.12338e-17,114.07,1167.86)">
                        <path d="M272.599,495.986L272.599,1019.49" style="fill:white;"/>
                        <path d="M269.484,487.002L275.715,487.002L275.715,514.909L269.484,514.909L269.484,487.002ZM269.484,536.696L275.715,536.696L275.715,574.542L269.484,574.542L269.484,536.696ZM269.484,596.329L275.715,596.329L275.715,634.174L269.484,634.174L269.484,596.329ZM269.484,655.962L275.715,655.962L275.715,693.807L269.484,693.807L269.484,655.962ZM269.484,715.594L275.715,715.594L275.715,753L269.484,753L269.484,715.594ZM269.484,773.028L275.715,773.028L275.715,809.994L269.484,809.994L269.484,773.028ZM269.484,830.022L275.715,830.022L275.715,866.988L269.484,866.988L269.484,830.022ZM269.484,887.017L275.715,887.017L275.715,923.983L269.484,923.983L269.484,887.017ZM269.484,944.011L275.715,944.011L275.715,980.977L269.484,980.977L269.484,944.011ZM269.484,1001L275.715,1001L275.715,1028.47L269.484,1028.47L269.484,1001Z" style="fill:white;"/>
                    </g>
                    <g transform="matrix(6.12323e-17,-1,0.346774,2.12338e-17,114.07,1233.36)">
                        <path d="M272.599,495.986L272.599,1019.49" style="fill:white;"/>
                        <path d="M269.484,487.002L275.715,487.002L275.715,514.909L269.484,514.909L269.484,487.002ZM269.484,536.696L275.715,536.696L275.715,574.542L269.484,574.542L269.484,536.696ZM269.484,596.329L275.715,596.329L275.715,634.174L269.484,634.174L269.484,596.329ZM269.484,655.962L275.715,655.962L275.715,693.807L269.484,693.807L269.484,655.962ZM269.484,715.594L275.715,715.594L275.715,753L269.484,753L269.484,715.594ZM269.484,773.028L275.715,773.028L275.715,809.994L269.484,809.994L269.484,773.028ZM269.484,830.022L275.715,830.022L275.715,866.988L269.484,866.988L269.484,830.022ZM269.484,887.017L275.715,887.017L275.715,923.983L269.484,923.983L269.484,887.017ZM269.484,944.011L275.715,944.011L275.715,980.977L269.484,980.977L269.484,944.011ZM269.484,1001L275.715,1001L275.715,1028.47L269.484,1028.47L269.484,1001Z" style="fill:white;"/>
                    </g>
                    <g transform="matrix(1,0,0,0.375763,195.003,577.671)">
                        <path d="M272.599,495.986L272.599,1019.49" style="fill:white;"/>
                        <path d="M269.484,487.695L275.715,487.695L275.715,514.216L269.484,514.216L269.484,487.695ZM269.484,537.389L275.715,537.389L275.715,573.849L269.484,573.849L269.484,537.389ZM269.484,597.022L275.715,597.022L275.715,633.481L269.484,633.481L269.484,597.022ZM269.484,656.655L275.715,656.655L275.715,693.114L269.484,693.114L269.484,656.655ZM269.484,716.288L275.715,716.288L275.715,752.307L269.484,752.307L269.484,716.288ZM269.484,773.721L275.715,773.721L275.715,809.301L269.484,809.301L269.484,773.721ZM269.484,830.716L275.715,830.716L275.715,866.295L269.484,866.295L269.484,830.716ZM269.484,887.71L275.715,887.71L275.715,923.289L269.484,923.289L269.484,887.71ZM269.484,944.704L275.715,944.704L275.715,980.284L269.484,980.284L269.484,944.704ZM269.484,1001.7L275.715,1001.7L275.715,1027.78L269.484,1027.78L269.484,1001.7Z" style="fill:white;"/>
                    </g>
                </g>
                <g transform="matrix(0.605049,-6.19722e-31,5.22046e-31,0.718254,148.732,273.686)">
                    <text x="324.316px" y="1011.01px" style="font-family:'CourierNewPS-BoldMT', 'Courier New';font-weight:700;font-size:41.768px;fill:white;stroke:black;stroke-width:1.51px;stroke-linejoin:round;stroke-miterlimit:2;">Patch</text>
                    <g transform="matrix(41.768,0,0,41.768,424.576,1052.77)">
                    </g>
                    <text x="349.381px" y="1052.77px" style="font-family:'CourierNewPS-BoldMT', 'Courier New';font-weight:700;font-size:41.768px;fill:white;stroke:black;stroke-width:1.51px;stroke-linejoin:round;stroke-miterlimit:2;">RAM</text>
                </g>
            </g>
            <g transform="matrix(1,0,0,1,401.471,282.827)">
                <g transform="matrix(0.689513,0,0,0.689513,102.705,164.25)">
                    <g transform="matrix(91.4337,0,0,91.4337,336.336,567.788)">
                    </g>
                    <text x="286.066px" y="567.788px" style="font-family:'Consolas';font-size:91.434px;fill:rgb(31,159,25);stroke:black;stroke-width:1.45px;stroke-linejoin:round;stroke-miterlimit:2;">0</text>
                </g>
                <g transform="matrix(0.689513,0,0,0.689513,162.773,163.88)">
                    <g transform="matrix(91.4337,0,0,91.4337,336.336,567.788)">
                    </g>
                    <text x="286.066px" y="567.788px" style="font-family:'Consolas';font-size:91.434px;fill:rgb(31,159,25);stroke:black;stroke-width:1.45px;stroke-linejoin:round;stroke-miterlimit:2;">1</text>
                </g>
                <g transform="matrix(0.689513,0,0,0.689513,223.026,164.25)">
                    <g transform="matrix(91.4337,0,0,91.4337,336.336,567.788)">
                    </g>
                    <text x="286.066px" y="567.788px" style="font-family:'Consolas';font-size:91.434px;fill:rgb(31,159,25);stroke:black;stroke-width:1.45px;stroke-linejoin:round;stroke-miterlimit:2;">0</text>
                </g>
            </g>
            <g transform="matrix(1,0,0,1,401.471,283.637)">
                <g transform="matrix(0.689513,0,0,0.689513,102.705,229.16)">
                    <g transform="matrix(91.4337,0,0,91.4337,336.336,567.788)">
                    </g>
                    <text x="286.066px" y="567.788px" style="font-family:'Consolas';font-size:91.434px;fill:rgb(31,159,25);stroke:black;stroke-width:1.45px;stroke-linejoin:round;stroke-miterlimit:2;">0</text>
                </g>
                <g transform="matrix(0.689513,0,0,0.689513,163.589,229.16)">
                    <g transform="matrix(91.4337,0,0,91.4337,336.336,567.788)">
                    </g>
                    <text x="286.066px" y="567.788px" style="font-family:'Consolas';font-size:91.434px;fill:rgb(31,159,25);stroke:black;stroke-width:1.45px;stroke-linejoin:round;stroke-miterlimit:2;">0</text>
                </g>
                <g transform="matrix(0.689513,0,0,0.689513,223.026,228.79)">
                    <g transform="matrix(91.4337,0,0,91.4337,336.336,567.788)">
                    </g>
                    <text x="286.066px" y="567.788px" style="font-family:'Consolas';font-size:91.434px;fill:rgb(31,159,25);stroke:black;stroke-width:1.45px;stroke-linejoin:round;stroke-miterlimit:2;">1</text>
                </g>
            </g>
            <g transform="matrix(1,0,0,1,400.633,283.92)">
                <g transform="matrix(0.689513,0,0,0.689513,102.097,294.228)">
                    <g transform="matrix(91.4337,0,0,91.4337,336.336,567.788)">
                    </g>
                    <text x="286.066px" y="567.788px" style="font-family:'Consolas';font-size:91.434px;fill:rgb(31,159,25);stroke:black;stroke-width:1.45px;stroke-linejoin:round;stroke-miterlimit:2;">1</text>
                </g>
                <g transform="matrix(0.689513,0,0,0.689513,161.534,294.228)">
                    <g transform="matrix(91.4337,0,0,91.4337,336.336,567.788)">
                    </g>
                    <text x="286.066px" y="567.788px" style="font-family:'Consolas';font-size:91.434px;fill:rgb(31,159,25);stroke:black;stroke-width:1.45px;stroke-linejoin:round;stroke-miterlimit:2;">1</text>
                </g>
                <g transform="matrix(0.689513,0,0,0.689513,222.418,294.598)">
                    <g transform="matrix(91.4337,0,0,91.4337,336.336,567.788)">
                    </g>
                    <text x="286.066px" y="567.788px" style="font-family:'Consolas';font-size:91.434px;fill:rgb(31,159,25);stroke:black;stroke-width:1.45px;stroke-linejoin:round;stroke-miterlimit:2;">0</text>
                </g>
            </g>
        </g>
        <g id="Layer1">
            <g id="_463202642" serif:id="_46320264" transform="matrix(3.23262e-15,-52.7927,73.0454,4.47274e-15,652.542,840.317)">
                <g id="_897059362" serif:id="_89705936" transform="matrix(0.231099,0,0,0.240772,3.25583,0.0871215)">
                    <path d="M0.331,0.44C0.331,0.44 3.909,0.44 3.909,0.44C4.088,0.44 4.234,0.586 4.234,0.765L4.234,2.066C4.234,2.245 4.088,2.392 3.909,2.392L0.331,2.391C0.152,2.391 0.006,2.245 0.006,2.066L0.006,0.765C0.006,0.586 0.152,0.44 0.331,0.44Z" style="fill:rgb(77,73,72);stroke:rgb(77,73,72);stroke-width:0.01px;"/>
                </g>
                <g id="_897097682" serif:id="_89709768" transform="matrix(1,0,0,0.240772,0,0.0871215)">
                    <path d="M3.584,0.44L3.584,0.115" style="fill:none;stroke:rgb(131,130,129);stroke-width:0.23px;stroke-linecap:round;"/>
                </g>
                <g id="_483433842" serif:id="_48343384" transform="matrix(1,0,0,0.240772,0,0.0871215)">
                    <path d="M3.909,0.44L3.909,0.115" style="fill:none;stroke:rgb(131,130,129);stroke-width:0.23px;stroke-linecap:round;"/>
                </g>
                <g id="_896044402" serif:id="_89604440" transform="matrix(1,0,0,0.240772,0,0.0871215)">
                    <path d="M3.584,2.717L3.584,2.392" style="fill:none;stroke:rgb(131,130,129);stroke-width:0.23px;stroke-linecap:round;"/>
                </g>
                <g id="_890119042" serif:id="_89011904" transform="matrix(1,0,0,0.240772,0,0.0871215)">
                    <path d="M3.909,2.717L3.909,2.392" style="fill:none;stroke:rgb(131,130,129);stroke-width:0.23px;stroke-linecap:round;"/>
                </g>
            </g>
            <g id="_463202643" serif:id="_46320264" transform="matrix(3.23262e-15,-52.7927,73.0454,4.47274e-15,712.735,840.317)">
                <g id="_897059363" serif:id="_89705936" transform="matrix(0.231099,0,0,0.240772,3.25583,0.0871215)">
                    <path d="M0.331,0.44C0.331,0.44 3.909,0.44 3.909,0.44C4.088,0.44 4.234,0.586 4.234,0.765L4.234,2.066C4.234,2.245 4.088,2.392 3.909,2.392L0.331,2.391C0.152,2.391 0.006,2.245 0.006,2.066L0.006,0.765C0.006,0.586 0.152,0.44 0.331,0.44Z" style="fill:rgb(77,73,72);stroke:rgb(77,73,72);stroke-width:0.01px;"/>
                </g>
                <g id="_897097683" serif:id="_89709768" transform="matrix(1,0,0,0.240772,0,0.0871215)">
                    <path d="M3.584,0.44L3.584,0.115" style="fill:none;stroke:rgb(131,130,129);stroke-width:0.23px;stroke-linecap:round;"/>
                </g>
                <g id="_483433843" serif:id="_48343384" transform="matrix(1,0,0,0.240772,0,0.0871215)">
                    <path d="M3.909,0.44L3.909,0.115" style="fill:none;stroke:rgb(131,130,129);stroke-width:0.23px;stroke-linecap:round;"/>
                </g>
                <g id="_896044403" serif:id="_89604440" transform="matrix(1,0,0,0.240772,0,0.0871215)">
                    <path d="M3.584,2.717L3.584,2.392" style="fill:none;stroke:rgb(131,130,129);stroke-width:0.23px;stroke-linecap:round;"/>
                </g>
                <g id="_890119043" serif:id="_89011904" transform="matrix(1,0,0,0.240772,0,0.0871215)">
                    <path d="M3.909,2.717L3.909,2.392" style="fill:none;stroke:rgb(131,130,129);stroke-width:0.23px;stroke-linecap:round;"/>
                </g>
            </g>
            <g id="_463202644" serif:id="_46320264" transform="matrix(3.23262e-15,-52.7927,73.0454,4.47274e-15,777.051,840.317)">
                <g id="_897059364" serif:id="_89705936" transform="matrix(0.231099,0,0,0.240772,3.25583,0.0871215)">
                    <path d="M0.331,0.44C0.331,0.44 3.909,0.44 3.909,0.44C4.088,0.44 4.234,0.586 4.234,0.765L4.234,2.066C4.234,2.245 4.088,2.392 3.909,2.392L0.331,2.391C0.152,2.391 0.006,2.245 0.006,2.066L0.006,0.765C0.006,0.586 0.152,0.44 0.331,0.44Z" style="fill:rgb(77,73,72);stroke:rgb(77,73,72);stroke-width:0.01px;"/>
                </g>
                <g id="_897097684" serif:id="_89709768" transform="matrix(1,0,0,0.240772,0,0.0871215)">
                    <path d="M3.584,0.44L3.584,0.115" style="fill:none;stroke:rgb(131,130,129);stroke-width:0.23px;stroke-linecap:round;"/>
                </g>
                <g id="_483433844" serif:id="_48343384" transform="matrix(1,0,0,0.240772,0,0.0871215)">
                    <path d="M3.909,0.44L3.909,0.115" style="fill:none;stroke:rgb(131,130,129);stroke-width:0.23px;stroke-linecap:round;"/>
                </g>
                <g id="_896044404" serif:id="_89604440" transform="matrix(1,0,0,0.240772,0,0.0871215)">
                    <path d="M3.584,2.717L3.584,2.392" style="fill:none;stroke:rgb(131,130,129);stroke-width:0.23px;stroke-linecap:round;"/>
                </g>
                <g id="_890119044" serif:id="_89011904" transform="matrix(1,0,0,0.240772,0,0.0871215)">
                    <path d="M3.909,2.717L3.909,2.392" style="fill:none;stroke:rgb(131,130,129);stroke-width:0.23px;stroke-linecap:round;"/>
                </g>
            </g>
            <g id="_463202645" serif:id="_46320264" transform="matrix(3.23262e-15,-52.7927,73.0454,4.47274e-15,842.192,840.317)">
                <g id="_897059365" serif:id="_89705936" transform="matrix(0.231099,0,0,0.240772,3.25583,0.0871215)">
                    <path d="M0.331,0.44C0.331,0.44 3.909,0.44 3.909,0.44C4.088,0.44 4.234,0.586 4.234,0.765L4.234,2.066C4.234,2.245 4.088,2.392 3.909,2.392L0.331,2.391C0.152,2.391 0.006,2.245 0.006,2.066L0.006,0.765C0.006,0.586 0.152,0.44 0.331,0.44Z" style="fill:rgb(77,73,72);stroke:rgb(77,73,72);stroke-width:0.01px;"/>
                </g>
                <g id="_897097685" serif:id="_89709768" transform="matrix(1,0,0,0.240772,0,0.0871215)">
                    <path d="M3.584,0.44L3.584,0.115" style="fill:none;stroke:rgb(131,130,129);stroke-width:0.23px;stroke-linecap:round;"/>
                </g>
                <g id="_483433845" serif:id="_48343384" transform="matrix(1,0,0,0.240772,0,0.0871215)">
                    <path d="M3.909,0.44L3.909,0.115" style="fill:none;stroke:rgb(131,130,129);stroke-width:0.23px;stroke-linecap:round;"/>
                </g>
                <g id="_896044405" serif:id="_89604440" transform="matrix(1,0,0,0.240772,0,0.0871215)">
                    <path d="M3.584,2.717L3.584,2.392" style="fill:none;stroke:rgb(131,130,129);stroke-width:0.23px;stroke-linecap:round;"/>
                </g>
                <g id="_890119045" serif:id="_89011904" transform="matrix(1,0,0,0.240772,0,0.0871215)">
                    <path d="M3.909,2.717L3.909,2.392" style="fill:none;stroke:rgb(131,130,129);stroke-width:0.23px;stroke-linecap:round;"/>
                </g>
            </g>
            <g transform="matrix(1,0,0,1,188.826,8.01425)">
                <g transform="matrix(1,-0,-0,1,-8.69839,461.663)">
                    <path d="M671.774,332.281L658.946,348.779L653.444,328.618L671.774,332.281Z" style="fill:rgb(242,13,13);"/>
                    <path d="M693.489,179.964L691.375,180.697L690.944,179.455L689.656,179.198L690.094,177.006L689.333,174.81L692.307,173.779C693.363,173.413 694.533,173.64 695.375,174.374C696.217,175.108 696.602,176.237 696.383,177.333L695.766,180.419L693.489,179.964ZM257.142,331.316L255.1,325.429L258.074,324.398L260.116,330.284L257.142,331.316ZM263.09,329.253L261.048,323.366L266.997,321.303L269.038,327.189L263.09,329.253ZM272.013,326.158L269.971,320.271L275.919,318.208L277.961,324.094L272.013,326.158ZM280.936,323.063L278.894,317.176L284.842,315.113L286.884,320.999L280.936,323.063ZM289.858,319.968L287.816,314.081L293.764,312.018L295.806,317.905L289.858,319.968ZM298.78,316.873L296.738,310.986L302.687,308.923L304.729,314.81L298.78,316.873ZM307.703,313.778L305.661,307.891L311.61,305.828L313.652,311.715L307.703,313.778ZM316.626,310.683L314.584,304.796L320.532,302.733L322.574,308.62L316.626,310.683ZM325.549,307.588L323.507,301.701L329.455,299.638L331.497,305.525L325.549,307.588ZM334.471,304.493L332.429,298.606L338.378,296.543L340.42,302.43L334.471,304.493ZM343.394,301.398L341.352,295.512L347.301,293.448L349.343,299.335L343.394,301.398ZM352.316,298.304L350.274,292.417L356.223,290.354L358.265,296.24L352.316,298.304ZM361.238,295.209L359.196,289.322L365.145,287.259L367.187,293.145L361.238,295.209ZM370.161,292.114L368.12,286.227L374.068,284.164L376.11,290.05L370.161,292.114ZM379.084,289.019L377.042,283.132L382.991,281.069L385.033,286.955L379.084,289.019ZM388.006,285.924L385.965,280.037L391.913,277.974L393.955,283.861L388.006,285.924ZM396.929,282.829L394.887,276.942L400.835,274.879L402.877,280.766L396.929,282.829ZM405.852,279.734L403.81,273.847L409.758,271.784L411.8,277.671L405.852,279.734ZM414.774,276.639L412.732,270.753L418.681,268.689L420.723,274.576L414.774,276.639ZM423.697,273.544L421.655,267.658L427.604,265.594L429.646,271.481L423.697,273.544ZM432.619,270.45L430.577,264.563L436.526,262.499L438.568,268.386L432.619,270.45ZM441.542,267.355L439.5,261.468L445.448,259.405L447.49,265.291L441.542,267.355ZM450.465,264.259L448.423,258.373L454.372,256.309L456.414,262.196L450.465,264.259ZM459.387,261.165L457.345,255.278L463.293,253.215L465.335,259.102L459.387,261.165ZM468.31,258.07L466.268,252.183L472.216,250.12L474.258,256.007L468.31,258.07ZM477.232,254.975L475.19,249.088L481.139,247.025L483.18,252.912L477.232,254.975ZM486.155,251.88L484.113,245.993L490.061,243.93L492.103,249.817L486.155,251.88ZM495.078,248.785L493.036,242.898L498.984,240.835L501.026,246.722L495.078,248.785ZM504,245.69L501.958,239.804L507.907,237.74L509.948,243.627L504,245.69ZM512.923,242.595L510.881,236.709L516.829,234.645L518.871,240.532L512.923,242.595ZM521.845,239.5L519.804,233.614L525.752,231.55L527.794,237.437L521.845,239.5ZM530.768,236.406L528.726,230.519L534.674,228.456L536.716,234.342L530.768,236.406ZM539.691,233.31L537.649,227.424L543.598,225.36L545.64,231.247L539.691,233.31ZM548.613,230.216L546.571,224.329L552.519,222.266L554.561,228.153L548.613,230.216ZM557.536,227.121L555.494,221.234L561.442,219.171L563.484,225.058L557.536,227.121ZM566.458,224.026L564.416,218.139L570.365,216.076L572.407,221.963L566.458,224.026ZM575.38,220.931L573.339,215.044L579.287,212.981L581.329,218.868L575.38,220.931ZM584.304,217.836L582.262,211.949L588.21,209.886L590.252,215.773L584.304,217.836ZM593.226,214.741L591.184,208.855L597.132,206.791L599.174,212.678L593.226,214.741ZM602.149,211.646L600.107,205.76L606.055,203.696L608.097,209.583L602.149,211.646ZM611.071,208.552L609.029,202.665L614.978,200.602L617.019,206.488L611.071,208.552ZM619.994,205.457L617.952,199.57L623.9,197.507L625.942,203.393L619.994,205.457ZM628.916,202.362L626.874,196.475L632.823,194.412L634.865,200.298L628.916,202.362ZM637.839,199.267L635.798,193.38L641.746,191.317L643.788,197.203L637.839,199.267ZM646.762,196.172L644.72,190.285L650.668,188.222L652.71,194.109L646.762,196.172ZM655.684,193.077L653.642,187.19L659.591,185.127L661.633,191.014L655.684,193.077ZM664.607,189.982L662.565,184.095L668.514,182.032L670.555,187.919L664.607,189.982ZM673.53,186.887L671.488,181L677.436,178.937L679.478,184.824L673.53,186.887ZM682.452,183.792L680.41,177.905L686.359,175.842L688.401,181.729L682.452,183.792ZM689.04,182.284L695.15,183.505L693.916,189.677L687.806,188.456L689.04,182.284ZM687.189,191.543L693.299,192.764L692.066,198.936L685.956,197.715L687.189,191.543ZM685.339,200.801L691.449,202.022L690.216,208.194L684.106,206.973L685.339,200.801ZM683.489,210.059L689.599,211.28L688.366,217.453L682.256,216.232L683.489,210.059ZM681.639,219.318L687.749,220.539L686.516,226.711L680.406,225.49L681.639,219.318ZM679.789,228.576L685.899,229.797L684.666,235.97L678.556,234.749L679.789,228.576ZM677.939,237.835L684.049,239.055L682.816,245.228L676.706,244.007L677.939,237.835ZM676.089,247.093L682.199,248.314L680.966,254.486L674.856,253.265L676.089,247.093ZM674.239,256.351L680.349,257.572L679.116,263.744L673.006,262.523L674.239,256.351ZM672.389,265.61L678.499,266.831L677.265,273.003L671.155,271.782L672.389,265.61ZM670.539,274.868L676.649,276.089L675.415,282.261L669.305,281.041L670.539,274.868ZM668.689,284.127L674.799,285.347L673.565,291.52L667.455,290.299L668.689,284.127ZM666.839,293.385L672.949,294.606L671.715,300.778L665.605,299.557L666.839,293.385ZM664.988,302.644L671.098,303.865L669.865,310.037L663.755,308.816L664.988,302.644ZM663.138,311.902L669.248,313.123L668.015,319.295L661.905,318.074L663.138,311.902ZM661.288,321.16L667.398,322.381L666.165,328.554L660.055,327.333L661.288,321.16ZM659.438,330.419L665.548,331.64L664.932,334.726L658.822,333.505L659.438,330.419Z" style="fill:rgb(242,13,13);"/>
                </g>
            </g>
            <g transform="matrix(1,0,0,1,124.51,4.17951)">
                <g transform="matrix(1,-0,-0,1,55.6179,465.498)">
                    <path d="M611.052,397.078L599.509,414.5L592.498,394.812L611.052,397.078Z" style="fill:rgb(242,13,13);"/>
                    <path d="M628.968,176.079L626.584,176.574L626.416,175.767L625.535,175.659L625.853,173.056L625.316,170.474L628.377,169.837C629.36,169.633 630.382,169.915 631.121,170.595C631.86,171.274 632.226,172.268 632.104,173.265L631.719,176.415L628.968,176.079ZM197.949,265.702L196.681,259.602L199.742,258.965L201.011,265.066L197.949,265.702ZM204.072,264.429L202.804,258.329L208.928,257.055L210.196,263.156L204.072,264.429ZM213.258,262.519L211.989,256.419L218.112,255.146L219.381,261.246L213.258,262.519ZM222.443,260.609L221.174,254.509L227.298,253.236L228.566,259.336L222.443,260.609ZM231.627,258.699L230.359,252.599L236.482,251.326L237.75,257.426L231.627,258.699ZM240.813,256.789L239.544,250.689L245.668,249.416L246.936,255.516L240.813,256.789ZM249.998,254.879L248.729,248.779L254.853,247.506L256.121,253.606L249.998,254.879ZM259.183,252.97L257.914,246.869L264.037,245.596L265.306,251.696L259.183,252.97ZM268.368,251.06L267.099,244.959L273.223,243.686L274.491,249.787L268.368,251.06ZM277.553,249.15L276.284,243.05L282.408,241.776L283.676,247.877L277.553,249.15ZM286.738,247.24L285.47,241.14L291.593,239.866L292.862,245.967L286.738,247.24ZM295.923,245.33L294.655,239.23L300.778,237.957L302.046,244.057L295.923,245.33ZM305.107,243.42L303.839,237.32L309.962,236.047L311.23,242.147L305.107,243.42ZM314.293,241.51L313.025,235.41L319.148,234.137L320.416,240.237L314.293,241.51ZM323.478,239.6L322.21,233.5L328.333,232.227L329.602,238.327L323.478,239.6ZM332.663,237.691L331.394,231.59L337.518,230.317L338.786,236.417L332.663,237.691ZM341.848,235.781L340.58,229.68L346.703,228.407L347.971,234.507L341.848,235.781ZM351.033,233.871L349.764,227.771L355.888,226.497L357.156,232.598L351.033,233.871ZM360.218,231.961L358.949,225.861L365.073,224.587L366.341,230.688L360.218,231.961ZM369.403,230.051L368.135,223.951L374.258,222.677L375.527,228.778L369.403,230.051ZM378.588,228.141L377.319,222.041L383.443,220.768L384.711,226.868L378.588,228.141ZM387.773,226.231L386.505,220.131L392.628,218.858L393.897,224.958L387.773,226.231ZM396.958,224.321L395.69,218.221L401.813,216.948L403.081,223.048L396.958,224.321ZM406.143,222.412L404.875,216.311L410.998,215.038L412.266,221.138L406.143,222.412ZM415.328,220.502L414.06,214.401L420.184,213.128L421.452,219.228L415.328,220.502ZM424.514,218.592L423.245,212.491L429.369,211.218L430.637,217.318L424.514,218.592ZM433.699,216.682L432.43,210.581L438.553,209.308L439.822,215.409L433.699,216.682ZM442.883,214.772L441.615,208.672L447.738,207.398L449.007,213.499L442.883,214.772ZM452.068,212.862L450.8,206.762L456.923,205.489L458.191,211.589L452.068,212.862ZM461.254,210.952L459.985,204.852L466.109,203.579L467.377,209.679L461.254,210.952ZM470.439,209.042L469.17,202.942L475.293,201.669L476.562,207.769L470.439,209.042ZM479.623,207.133L478.355,201.032L484.478,199.759L485.746,205.859L479.623,207.133ZM488.808,205.223L487.54,199.122L493.664,197.849L494.932,203.949L488.808,205.223ZM497.993,203.313L496.725,197.212L502.848,195.939L504.117,202.039L497.993,203.313ZM507.179,201.403L505.91,195.302L512.034,194.029L513.302,200.129L507.179,201.403ZM516.364,199.493L515.096,193.393L521.219,192.119L522.488,198.22L516.364,199.493ZM525.549,197.583L524.28,191.483L530.404,190.209L531.672,196.31L525.549,197.583ZM534.733,195.673L533.465,189.573L539.588,188.3L540.857,194.4L534.733,195.673ZM543.919,193.763L542.65,187.663L548.773,186.39L550.042,192.49L543.919,193.763ZM553.104,191.853L551.835,185.753L557.959,184.48L559.227,190.58L553.104,191.853ZM562.289,189.943L561.021,183.843L567.144,182.57L568.413,188.67L562.289,189.943ZM571.474,188.034L570.205,181.933L576.329,180.66L577.597,186.76L571.474,188.034ZM580.659,186.124L579.391,180.023L585.514,178.75L586.783,184.85L580.659,186.124ZM589.844,184.214L588.575,178.114L594.699,176.84L595.967,182.941L589.844,184.214ZM599.029,182.304L597.761,176.204L603.884,174.93L605.153,181.031L599.029,182.304ZM608.214,180.394L606.946,174.294L613.069,173.021L614.337,179.121L608.214,180.394ZM617.399,178.484L616.131,172.384L622.254,171.111L623.523,177.211L617.399,178.484ZM625.15,178.809L631.335,179.564L630.566,185.863L624.381,185.108L625.15,178.809ZM623.996,188.258L630.181,189.013L629.412,195.312L623.227,194.557L623.996,188.258ZM622.843,197.706L629.027,198.461L628.258,204.761L622.073,204.005L622.843,197.706ZM621.689,207.155L627.874,207.91L627.105,214.209L620.92,213.454L621.689,207.155ZM620.535,216.604L626.72,217.359L625.951,223.658L619.766,222.903L620.535,216.604ZM619.381,226.053L625.566,226.808L624.797,233.107L618.612,232.352L619.381,226.053ZM618.228,235.501L624.412,236.256L623.643,242.555L617.458,241.8L618.228,235.501ZM617.074,244.95L623.259,245.705L622.489,252.005L616.305,251.249L617.074,244.95ZM615.92,254.399L622.105,255.154L621.336,261.453L615.151,260.698L615.92,254.399ZM614.766,263.847L620.951,264.603L620.182,270.902L613.997,270.147L614.766,263.847ZM613.613,273.296L619.797,274.051L619.028,280.35L612.843,279.595L613.613,273.296ZM612.459,282.745L618.644,283.5L617.875,289.799L611.69,289.044L612.459,282.745ZM611.305,292.193L617.49,292.948L616.721,299.248L610.536,298.492L611.305,292.193ZM610.151,301.642L616.336,302.397L615.567,308.696L609.382,307.941L610.151,301.642ZM608.998,311.091L615.182,311.846L614.413,318.145L608.228,317.39L608.998,311.091ZM607.844,320.539L614.029,321.295L613.26,327.594L607.075,326.839L607.844,320.539ZM606.69,329.988L612.875,330.743L612.106,337.043L605.921,336.287L606.69,329.988ZM605.536,339.437L611.721,340.192L610.952,346.491L604.767,345.736L605.536,339.437ZM604.383,348.885L610.567,349.64L609.798,355.94L603.613,355.184L604.383,348.885ZM603.229,358.334L609.414,359.09L608.645,365.389L602.46,364.634L603.229,358.334ZM602.075,367.783L608.26,368.538L607.491,374.837L601.306,374.082L602.075,367.783ZM600.921,377.232L607.106,377.987L606.337,384.286L600.152,383.531L600.921,377.232ZM599.768,386.68L605.952,387.435L605.183,393.735L598.998,392.979L599.768,386.68ZM598.614,396.129L604.799,396.884L604.414,400.034L598.229,399.279L598.614,396.129Z" style="fill:rgb(242,13,13);"/>
                </g>
            </g>
            <g transform="matrix(1,0,0,1,60.1935,7.91552)">
                <g transform="matrix(1,-0,-0,1,119.934,461.762)">
                    <path d="M549.952,396.937L538.625,414.5L531.371,394.901L549.952,396.937Z" style="fill:rgb(242,13,13);"/>
                    <path d="M257.112,134.293L258.023,128.129L261.126,128.588L260.214,134.752L257.112,134.293ZM263.316,135.211L264.228,129.047L270.432,129.964L269.521,136.128L263.316,135.211ZM272.623,136.587L273.535,130.423L279.739,131.34L278.828,137.504L272.623,136.587ZM281.93,137.963L282.842,131.799L289.046,132.716L288.135,138.88L281.93,137.963ZM291.237,139.339L292.149,133.175L298.353,134.093L297.442,140.256L291.237,139.339ZM300.544,140.715L301.455,134.551L307.66,135.469L306.748,141.632L300.544,140.715ZM309.851,142.091L310.762,135.927L316.967,136.845L316.055,143.009L309.851,142.091ZM319.158,143.467L320.069,137.304L326.274,138.221L325.363,144.385L319.158,143.467ZM328.465,144.843L329.376,138.68L335.581,139.597L334.669,145.761L328.465,144.843ZM337.772,146.22L338.683,140.056L344.888,140.973L343.977,147.137L337.772,146.22ZM347.079,147.596L347.99,141.432L354.195,142.349L353.284,148.513L347.079,147.596ZM356.386,148.972L357.297,142.808L363.502,143.726L362.59,149.889L356.386,148.972ZM365.692,150.348L366.603,144.184L372.808,145.102L371.897,151.265L365.692,150.348ZM374.999,151.724L375.91,145.56L382.115,146.478L381.204,152.641L374.999,151.724ZM384.306,153.1L385.218,146.936L391.422,147.854L390.511,154.018L384.306,153.1ZM393.613,154.476L394.525,148.313L400.73,149.23L399.818,155.394L393.613,154.476ZM402.92,155.853L403.832,149.689L410.036,150.606L409.125,156.77L402.92,155.853ZM412.227,157.229L413.139,151.065L419.343,151.982L418.432,158.146L412.227,157.229ZM421.534,158.605L422.446,152.441L428.65,153.358L427.739,159.522L421.534,158.605ZM430.841,159.981L431.752,153.817L437.956,154.734L437.045,160.898L430.841,159.981ZM440.148,161.357L441.059,155.193L447.264,156.111L446.352,162.274L440.148,161.357ZM449.455,162.733L450.366,156.569L456.571,157.487L455.659,163.651L449.455,162.733ZM458.762,164.109L459.673,157.946L465.877,158.863L464.966,165.027L458.762,164.109ZM468.068,165.485L468.98,159.322L475.184,160.239L474.273,166.403L468.068,165.485ZM477.375,166.862L478.287,160.698L484.491,161.615L483.58,167.779L477.375,166.862ZM486.682,168.238L487.594,162.074L493.798,162.991L492.887,169.155L486.682,168.238ZM495.989,169.614L496.9,163.45L503.105,164.367L502.194,170.531L495.989,169.614ZM505.296,170.99L506.207,164.826L512.412,165.744L511.501,171.907L505.296,170.99ZM514.603,172.366L515.514,166.202L521.719,167.12L520.807,173.283L514.603,172.366ZM523.91,173.742L524.821,167.578L531.026,168.496L530.114,174.66L523.91,173.742ZM533.216,175.118L534.128,168.955L540.332,169.872L539.421,176.036L533.216,175.118ZM542.524,176.494L543.435,170.331L549.64,171.248L548.728,177.412L542.524,176.494ZM551.831,177.871L552.742,171.707L558.947,172.624L558.035,178.788L551.831,177.871ZM561.137,179.247L562.049,173.083L565.151,173.542C566.808,173.787 567.975,175.298 567.792,176.963L567.453,180.06L561.259,179.382L561.272,179.267L561.137,179.247ZM560.92,182.479L567.113,183.158L566.434,189.352L560.241,188.674L560.92,182.479ZM559.901,191.771L566.095,192.45L565.416,198.645L559.222,197.966L559.901,191.771ZM558.883,201.063L565.077,201.742L564.398,207.937L558.204,207.258L558.883,201.063ZM557.864,210.355L564.058,211.034L563.379,217.229L557.186,216.55L557.864,210.355ZM556.846,219.647L563.04,220.326L562.361,226.521L556.167,225.842L556.846,219.647ZM555.828,228.939L562.021,229.618L561.343,235.813L555.149,235.134L555.828,228.939ZM554.809,238.232L561.003,238.911L560.324,245.105L554.13,244.427L554.809,238.232ZM553.791,247.524L559.985,248.203L559.306,254.398L553.112,253.719L553.791,247.524ZM552.773,256.816L558.966,257.495L558.287,263.69L552.094,263.011L552.773,256.816ZM551.754,266.108L557.948,266.787L557.269,272.982L551.075,272.303L551.754,266.108ZM550.736,275.4L556.93,276.079L556.251,282.274L550.057,281.595L550.736,275.4ZM549.718,284.692L555.911,285.371L555.232,291.566L549.039,290.887L549.718,284.692ZM548.699,293.984L554.893,294.663L554.214,300.858L548.02,300.179L548.699,293.984ZM547.681,303.277L553.874,303.956L553.196,310.151L547.002,309.472L547.681,303.277ZM546.662,312.569L552.856,313.247L552.177,319.442L545.984,318.763L546.662,312.569ZM545.644,321.861L551.838,322.54L551.159,328.735L544.965,328.056L545.644,321.861ZM544.626,331.153L550.819,331.832L550.14,338.027L543.947,337.348L544.626,331.153ZM543.607,340.445L549.801,341.124L549.122,347.319L542.928,346.64L543.607,340.445ZM542.589,349.737L548.783,350.416L548.104,356.611L541.91,355.932L542.589,349.737ZM541.571,359.03L547.764,359.709L547.085,365.903L540.892,365.225L541.571,359.03ZM540.552,368.322L546.746,369.001L546.067,375.195L539.873,374.517L540.552,368.322ZM539.534,377.614L545.727,378.293L545.049,384.487L538.855,383.809L539.534,377.614ZM538.515,386.906L544.709,387.585L544.03,393.779L537.837,393.101L538.515,386.906ZM537.497,396.198L543.691,396.877L543.351,399.974L537.158,399.296L537.497,396.198Z" style="fill:rgb(242,13,13);"/>
                </g>
            </g>
            <g transform="matrix(1,0,0,1,0.824568,7.91552)">
                <g transform="matrix(1,-0,-0,1,179.303,461.762)">
                    <path d="M544.252,328.652L538.625,348.779L525.9,332.202L544.252,328.652Z" style="fill:rgb(242,13,13);"/>
                    <path d="M195.445,200.502L195.029,194.285L198.161,194.075L198.577,200.292L195.445,200.502ZM201.709,200.082L201.293,193.865L207.557,193.446L207.974,199.663L201.709,200.082ZM211.106,199.453L210.69,193.236L216.954,192.816L217.37,199.033L211.106,199.453ZM220.503,198.823L220.086,192.607L226.351,192.187L226.767,198.404L220.503,198.823ZM229.9,198.194L229.483,191.977L235.748,191.558L236.164,197.774L229.9,198.194ZM239.296,197.565L238.88,191.348L245.144,190.928L245.56,197.145L239.296,197.565ZM248.693,196.935L248.276,190.718L254.54,190.299L254.957,196.516L248.693,196.935ZM258.09,196.306L257.673,190.089L263.938,189.669L264.354,195.886L258.09,196.306ZM267.486,195.676L267.07,189.46L273.334,189.04L273.75,195.257L267.486,195.676ZM276.883,195.047L276.467,188.83L282.731,188.411L283.148,194.627L276.883,195.047ZM286.28,194.418L285.863,188.201L292.128,187.781L292.544,193.998L286.28,194.418ZM295.676,193.788L295.26,187.571L301.524,187.152L301.941,193.369L295.676,193.788ZM305.072,193.159L304.656,186.942L310.921,186.523L311.337,192.739L305.072,193.159ZM314.469,192.53L314.053,186.313L320.317,185.893L320.734,192.11L314.469,192.53ZM323.866,191.9L323.45,185.683L329.714,185.264L330.131,191.481L323.866,191.9ZM333.263,191.271L332.847,185.054L339.111,184.634L339.528,190.851L333.263,191.271ZM342.66,190.641L342.243,184.425L348.508,184.005L348.924,190.222L342.66,190.641ZM352.056,190.012L351.64,183.795L357.904,183.376L358.321,189.592L352.056,190.012ZM361.453,189.383L361.037,183.166L367.301,182.746L367.718,188.963L361.453,189.383ZM370.849,188.753L370.433,182.536L376.697,182.117L377.113,188.334L370.849,188.753ZM380.246,188.124L379.83,181.907L386.094,181.487L386.51,187.704L380.246,188.124ZM389.643,187.494L389.226,181.278L395.491,180.858L395.907,187.075L389.643,187.494ZM399.039,186.865L398.623,180.648L404.887,180.229L405.304,186.445L399.039,186.865ZM408.436,186.236L408.02,180.019L414.284,179.599L414.7,185.816L408.436,186.236ZM417.833,185.606L417.416,179.389L423.681,178.97L424.097,185.187L417.833,185.606ZM427.229,184.977L426.813,178.76L433.077,178.34L433.494,184.557L427.229,184.977ZM436.626,184.347L436.209,178.131L442.474,177.711L442.89,183.928L436.626,184.347ZM446.023,183.718L445.606,177.501L451.871,177.082L452.287,183.298L446.023,183.718ZM455.419,183.089L455.003,176.872L461.267,176.452L461.683,182.669L455.419,183.089ZM464.816,182.459L464.399,176.242L470.664,175.823L471.08,182.04L464.816,182.459ZM474.212,181.83L473.796,175.613L480.06,175.193L480.477,181.41L474.212,181.83ZM483.609,181.2L483.193,174.984L489.457,174.564L489.874,180.781L483.609,181.2ZM493.006,180.571L492.589,174.354L498.854,173.935L499.27,180.152L493.006,180.571ZM502.402,179.942L501.986,173.725L505.118,173.515C506.686,173.41 508.087,174.489 508.385,176.032L508.982,179.12L502.865,180.303C502.865,180.303 502.79,179.916 502.79,179.916L502.402,179.942ZM503.462,183.391L509.58,182.207L510.774,188.383L504.657,189.566L503.462,183.391ZM505.254,192.654L511.371,191.471L512.566,197.646L506.448,198.829L505.254,192.654ZM507.046,201.917L513.163,200.734L514.358,206.909L508.24,208.092L507.046,201.917ZM508.837,211.18L514.955,209.997L516.149,216.172L510.032,217.356L508.837,211.18ZM510.629,220.443L516.746,219.26L517.941,225.435L511.824,226.619L510.629,220.443ZM512.421,229.707L518.538,228.523L519.733,234.699L513.615,235.882L512.421,229.707ZM514.213,238.97L520.33,237.786L521.524,243.962L515.407,245.145L514.213,238.97ZM516.004,248.233L522.122,247.05L523.316,253.225L517.199,254.409L516.004,248.233ZM517.796,257.496L523.913,256.313L525.108,262.488L518.99,263.672L517.796,257.496ZM519.588,266.759L525.705,265.576L526.899,271.751L520.782,272.935L519.588,266.759ZM521.379,276.023L527.497,274.839L528.691,281.015L522.574,282.198L521.379,276.023ZM523.171,285.286L529.288,284.102L530.483,290.278L524.366,291.461L523.171,285.286ZM524.963,294.549L531.08,293.365L532.275,299.541L526.157,300.724L524.963,294.549ZM526.755,303.812L532.872,302.629L534.066,308.804L527.949,309.988L526.755,303.812ZM528.546,313.075L534.664,311.892L535.858,318.067L529.741,319.251L528.546,313.075ZM530.338,322.338L536.455,321.155L537.65,327.331L531.532,328.514L530.338,322.338ZM532.13,331.602L538.247,330.418L538.844,333.506L532.727,334.689L532.13,331.602Z" style="fill:rgb(242,13,13);"/>
                </g>
            </g>
            <g transform="matrix(1,0,0,1,-42.053,40.5615)">
                <text x="733.932px" y="484.107px" style="font-family:'CourierNewPS-BoldMT', 'Courier New';font-weight:700;font-size:63.045px;fill:white;stroke:black;stroke-width:1px;stroke-linejoin:round;stroke-miterlimit:2;">Match</text>
                <g transform="matrix(63.0447,0,0,63.0447,998.763,547.152)">
                </g>
                <text x="658.266px" y="547.152px" style="font-family:'CourierNewPS-BoldMT', 'Courier New';font-weight:700;font-size:63.045px;fill:white;stroke:black;stroke-width:1px;stroke-linejoin:round;stroke-miterlimit:2;">Registers</text>
            </g>
        </g>
    </g>
</svg>
